<?xml version="1.0" encoding="UTF-8" standalone="no"?>
<svg
   xmlns:dc="http://purl.org/dc/elements/1.1/"
   xmlns:cc="http://creativecommons.org/ns#"
   xmlns:rdf="http://www.w3.org/1999/02/22-rdf-syntax-ns#"
   xmlns:svg="http://www.w3.org/2000/svg"
   xmlns="http://www.w3.org/2000/svg"
   xmlns:sodipodi="http://sodipodi.sourceforge.net/DTD/sodipodi-0.dtd"
   xmlns:inkscape="http://www.inkscape.org/namespaces/inkscape"
   version="1.0"
   width="196.000000pt"
   height="196.000000pt"
   viewBox="0 0 196.000000 196.000000"
   preserveAspectRatio="xMidYMid meet"
   id="svg92"
   sodipodi:docname="logo.svg.2021_08_10_18_56_59.0.svg"
   inkscape:export-filename="/media/gautier/datashared/Travail/web/Blog/public/static/favicons/mstile-150x150.png"
   inkscape:export-xdpi="63.709999"
   inkscape:export-ydpi="63.709999"
   inkscape:version="0.92.5 (2060ec1f9f, 2020-04-08)">
  <metadata
     id="metadata98">
    <rdf:RDF>
      <cc:Work
         rdf:about="">
        <dc:format>image/svg+xml</dc:format>
        <dc:type
           rdf:resource="http://purl.org/dc/dcmitype/StillImage" />
        <dc:title></dc:title>
      </cc:Work>
    </rdf:RDF>
  </metadata>
  <defs
     id="defs96" />
  <sodipodi:namedview
     pagecolor="#ffffff"
     bordercolor="#666666"
     borderopacity="1"
     objecttolerance="10"
     gridtolerance="10"
     guidetolerance="10"
     inkscape:pageopacity="0"
     inkscape:pageshadow="2"
     inkscape:window-width="1920"
     inkscape:window-height="1016"
     id="namedview94"
     showgrid="false"
     inkscape:zoom="0.56758654"
     inkscape:cx="-802.08713"
     inkscape:cy="341.12305"
     inkscape:window-x="0"
     inkscape:window-y="27"
     inkscape:window-maximized="1"
     inkscape:current-layer="g90" />
  <g
     transform="translate(0.000000,196.000000) scale(0.100000,-0.100000)"
     fill="#000000"
     stroke="none"
     id="g90">
    <path
       d="m 536.56151,1253.3934 c -43.27916,-48.9615 -82.34594,49.1572 -80.19197,-353.83708 2.3359,-437.0308 28.05104,-163.0174 432.05104,-245.0174 101,-20 39.95294,-35.50493 133.30122,36.74352 114.4182,169.99887 454.7825,-71.86426 472.7688,-18.63643 31,112 -163.3978,493.59319 -194.3978,607.59319 -269.919,-42.7498 -280.4808,-139.6218 -305.38336,-131.1993 -26.8459,9.0798 -8.93111,65.6658 -86.36099,106.6724 -94,27 -199.15562,55.6709 -371.78694,-2.3189 z M 832,1213 c 36,-21 64,-57 72,-95 9,-40 -10,-34 -24,7 -33,100 -178,125 -256,44 -27,-28 -29,-35 -29,-111 v -80 l 150,-55 c 83,-30 154,-58 159,-63 16,-16 -36,-102 -74,-122 -30,-17 -50,-19 -137,-14 -178,8 -203,40 -203,259 0,110 3,138 19,167 24,46 72,73 134,77 27,1 53,5 56,9 11,11 102,-5 133,-23 z m 534,-236 c 65,-160 98,-253 90,-255 -6,-1 -63,25 -126,59 -63,34 -120,62 -125,62 -6,0 -61,3.38288 -123,-30.61712 C 1021,777.38288 966,720 961,722 c -10,3 17.39642,367.9167 29.7031,390.2 23.3438,42.2679 17.9591,-7.5977 12.735,-85.8564 l -4.07727,-82.85845 24.28627,-3.4653 c 24.0846,-5.69654 100.2633,-4.15428 105.2633,0.84572 4,5 22.0896,55.13443 51.0896,129.13443 62,157 70,174 78,166 3,-4 52,-120 108,-259 z"
       id="path74"
       inkscape:connector-curvature="0"
       sodipodi:nodetypes="csccccsccccccsccsccsccccccssccsccccccc" />
    <path
       d="M583 1195 c-59 -25 -73 -63 -73 -202 l0 -123 30 0 30 0 0 129 c0 121 1 130 25 166 15 20 25 39 23 40 -2 2 -18 -3 -35 -10z"
       id="path76" />
    <path
       d="M590 914 l0 -44 118 1 c131 0 134 -5 -35 57 l-83 31 0 -45z"
       id="path78" />
    <path
       d="M517 844 c-12 -12 23 -64 53 -79 40 -21 57 -19 37 3 -9 10 -22 33 -28 50 -8 23 -17 32 -33 32 -13 0 -25 -3 -29 -6z"
       id="path80" />
    <path
       d="M590 843 c0 -21 43 -74 71 -88 40 -21 118 -21 158 -1 34 18 61 52 61 78 0 16 -13 18 -145 18 -80 0 -145 -3 -145 -7z"
       id="path82" />
    <path
       d="M1196 1061 c-31 -78 -56 -144 -56 -149 0 -4 14 -15 31 -24 30 -18 31 -18 105 23 41 22 74 44 74 49 0 4 -22 60 -49 125 l-48 117 -57 -141z"
       id="path84" />
    <path
       d="M1288 897 c-32 -18 -58 -34 -58 -37 0 -3 45 -29 100 -58 55 -29 100 -49 100 -45 0 20 -66 173 -75 172 -5 0 -36 -15 -67 -32z"
       id="path86" />
    <path
       d="M 982.41307,826.39753 C 975.66244,745.89958 989,758 991,756 c 2,-1 29.4827,47.42769 80.4827,76.42769 L 1182,858 l -55,31 c -30,17 -117.3975,21.6564 -123.3975,21.6564 -4.99999,0 -10.82252,3.57867 -21.18943,-84.25887 z"
       id="path88"
       inkscape:connector-curvature="0"
       sodipodi:nodetypes="cccccsc" />
  </g>
</svg>
