<?xml version="1.0" standalone="no"?>
<!DOCTYPE svg PUBLIC "-//W3C//DTD SVG 20010904//EN"
 "http://www.w3.org/TR/2001/REC-SVG-20010904/DTD/svg10.dtd">
<svg version="1.0" xmlns="http://www.w3.org/2000/svg"
 width="196.000000pt" height="196.000000pt" viewBox="0 0 196.000000 196.000000"
 preserveAspectRatio="xMidYMid meet">

<g transform="translate(0.000000,196.000000) scale(0.100000,-0.100000)"
fill="#000000" stroke="none">
<path d="M800 1836 c-396 -84 -680 -433 -680 -836 0 -409 285 -754 689 -836
101 -20 281 -15 376 11 96 26 253 108 331 173 127 107 229 269 276 438 31 112
31 315 0 429 -79 290 -306 522 -594 606 -94 27 -303 35 -398 15z m32 -623 c36
-21 64 -57 72 -95 9 -40 -10 -34 -24 7 -33 100 -178 125 -256 44 -27 -28 -29
-35 -29 -111 l0 -80 150 -55 c83 -30 154 -58 159 -63 16 -16 -36 -102 -74
-122 -30 -17 -50 -19 -137 -14 -178 8 -203 40 -203 259 0 110 3 138 19 167 24
46 72 73 134 77 27 1 53 5 56 9 11 11 102 -5 133 -23z m534 -236 c65 -160 98
-253 90 -255 -6 -1 -63 25 -126 59 -63 34 -120 62 -125 62 -6 0 -61 -28 -123
-62 -61 -35 -116 -61 -121 -59 -10 3 131 364 149 382 18 18 11 -17 -19 -87
l-29 -68 24 -16 c15 -9 28 -12 33 -7 4 5 32 70 61 144 62 157 70 174 78 166 3
-4 52 -120 108 -259z"/>
<path d="M583 1195 c-59 -25 -73 -63 -73 -202 l0 -123 30 0 30 0 0 129 c0 121
1 130 25 166 15 20 25 39 23 40 -2 2 -18 -3 -35 -10z"/>
<path d="M590 914 l0 -44 118 1 c131 0 134 -5 -35 57 l-83 31 0 -45z"/>
<path d="M517 844 c-12 -12 23 -64 53 -79 40 -21 57 -19 37 3 -9 10 -22 33
-28 50 -8 23 -17 32 -33 32 -13 0 -25 -3 -29 -6z"/>
<path d="M590 843 c0 -21 43 -74 71 -88 40 -21 118 -21 158 -1 34 18 61 52 61
78 0 16 -13 18 -145 18 -80 0 -145 -3 -145 -7z"/>
<path d="M1196 1061 c-31 -78 -56 -144 -56 -149 0 -4 14 -15 31 -24 30 -18 31
-18 105 23 41 22 74 44 74 49 0 4 -22 60 -49 125 l-48 117 -57 -141z"/>
<path d="M1288 897 c-32 -18 -58 -34 -58 -37 0 -3 45 -29 100 -58 55 -29 100
-49 100 -45 0 20 -66 173 -75 172 -5 0 -36 -15 -67 -32z"/>
<path d="M1020 840 c-18 -45 -31 -82 -29 -84 2 -1 46 21 97 50 l94 52 -55 31
c-30 17 -59 31 -65 31 -5 0 -24 -36 -42 -80z"/>
</g>
</svg>
