<?xml version="1.0" encoding="UTF-8" standalone="no"?>
<svg
   xmlns:dc="http://purl.org/dc/elements/1.1/"
   xmlns:cc="http://creativecommons.org/ns#"
   xmlns:rdf="http://www.w3.org/1999/02/22-rdf-syntax-ns#"
   xmlns:svg="http://www.w3.org/2000/svg"
   xmlns="http://www.w3.org/2000/svg"
   xmlns:sodipodi="http://sodipodi.sourceforge.net/DTD/sodipodi-0.dtd"
   xmlns:inkscape="http://www.inkscape.org/namespaces/inkscape"
   version="1.0"
   width="196.000000pt"
   height="196.000000pt"
   viewBox="0 0 196.000000 196.000000"
   preserveAspectRatio="xMidYMid meet"
   id="svg92"
   sodipodi:docname="logo.svg.2021_08_10_18_56_59.0.svg"
   inkscape:export-filename="/media/gautier/datashared/Travail/web/Blog/public/static/favicons/mstile-150x150.png"
   inkscape:export-xdpi="63.709999"
   inkscape:export-ydpi="63.709999"
   inkscape:version="0.92.5 (2060ec1f9f, 2020-04-08)">
  <metadata
     id="metadata98">
    <rdf:RDF>
      <cc:Work
         rdf:about="">
        <dc:format>image/svg+xml</dc:format>
        <dc:type
           rdf:resource="http://purl.org/dc/dcmitype/StillImage" />
        <dc:title></dc:title>
      </cc:Work>
    </rdf:RDF>
  </metadata>
  <defs
     id="defs96" />
  <sodipodi:namedview
     pagecolor="#ffffff"
     bordercolor="#666666"
     borderopacity="1"
     objecttolerance="10"
     gridtolerance="10"
     guidetolerance="10"
     inkscape:pageopacity="0"
     inkscape:pageshadow="2"
     inkscape:window-width="1920"
     inkscape:window-height="1016"
     id="namedview94"
     showgrid="false"
     inkscape:zoom="2.2703461"
     inkscape:cx="137.53823"
     inkscape:cy="190.7177"
     inkscape:window-x="0"
     inkscape:window-y="27"
     inkscape:window-maximized="1"
     inkscape:current-layer="g90" />
  <g
     transform="translate(0.000000,196.000000) scale(0.100000,-0.100000)"
     fill="#000000"
     stroke="none"
     id="g90">
    <path
       d="m 615.46393,1249.6892 c -43.27916,-48.9615 -161.24836,52.8614 -159.09439,-350.13288 2.3359,-437.0308 -13.99515,-160.6815 390.00485,-242.6815 101,-20 45.07414,-29.0154 140.07414,-3.0154 95.99997,26 105.83837,-29.81808 183.83837,35.18192 127,107 292.0692,-109.41573 339.0692,59.58427 31,112 -181.5668,434.13089 -212.5668,548.13089 -366.31565,-228.5697 -30.3639,-127.3801 -318.36386,-43.3801 -94,27 -267.96151,16.3128 -362.96151,-3.6872 z M 832,1213 c 36,-21 64,-57 72,-95 9,-40 -10,-34 -24,7 -33,100 -178,125 -256,44 -27,-28 -29,-35 -29,-111 v -80 l 150,-55 c 83,-30 154,-58 159,-63 16,-16 -36,-102 -74,-122 -30,-17 -50,-19 -137,-14 -178,8 -203,40 -203,259 0,110 3,138 19,167 24,46 72,73 134,77 27,1 53,5 56,9 11,11 102,-5 133,-23 z m 534,-236 c 65,-160 98,-253 90,-255 -6,-1 -63,25 -126,59 -63,34 -120,62 -125,62 -6,0 -61,-28 -123,-62 -61,-35 -116,-61 -121,-59 -10,3 131,364 149,382 18,18 11,-17 -19,-87 l -29,-68 24,-16 c 15,-9 28,-12 33,-7 4,5 32,70 61,144 62,157 70,174 78,166 3,-4 52,-120 108,-259 z"
       id="path74"
       inkscape:connector-curvature="0"
       sodipodi:nodetypes="cscccccccccccsccsccsccccccssccsccccccc" />
    <path
       d="M583 1195 c-59 -25 -73 -63 -73 -202 l0 -123 30 0 30 0 0 129 c0 121 1 130 25 166 15 20 25 39 23 40 -2 2 -18 -3 -35 -10z"
       id="path76" />
    <path
       d="M590 914 l0 -44 118 1 c131 0 134 -5 -35 57 l-83 31 0 -45z"
       id="path78" />
    <path
       d="M517 844 c-12 -12 23 -64 53 -79 40 -21 57 -19 37 3 -9 10 -22 33 -28 50 -8 23 -17 32 -33 32 -13 0 -25 -3 -29 -6z"
       id="path80" />
    <path
       d="M590 843 c0 -21 43 -74 71 -88 40 -21 118 -21 158 -1 34 18 61 52 61 78 0 16 -13 18 -145 18 -80 0 -145 -3 -145 -7z"
       id="path82" />
    <path
       d="M1196 1061 c-31 -78 -56 -144 -56 -149 0 -4 14 -15 31 -24 30 -18 31 -18 105 23 41 22 74 44 74 49 0 4 -22 60 -49 125 l-48 117 -57 -141z"
       id="path84" />
    <path
       d="M1288 897 c-32 -18 -58 -34 -58 -37 0 -3 45 -29 100 -58 55 -29 100 -49 100 -45 0 20 -66 173 -75 172 -5 0 -36 -15 -67 -32z"
       id="path86" />
    <path
       d="M1020 840 c-18 -45 -31 -82 -29 -84 2 -1 46 21 97 50 l94 52 -55 31 c-30 17 -59 31 -65 31 -5 0 -24 -36 -42 -80z"
       id="path88" />
  </g>
</svg>
