<?xml version="1.0" encoding="UTF-8" standalone="no"?>
<svg
   xmlns:osb="http://www.openswatchbook.org/uri/2009/osb"
   xmlns:dc="http://purl.org/dc/elements/1.1/"
   xmlns:cc="http://creativecommons.org/ns#"
   xmlns:rdf="http://www.w3.org/1999/02/22-rdf-syntax-ns#"
   xmlns:svg="http://www.w3.org/2000/svg"
   xmlns="http://www.w3.org/2000/svg"
   xmlns:xlink="http://www.w3.org/1999/xlink"
   xmlns:sodipodi="http://sodipodi.sourceforge.net/DTD/sodipodi-0.dtd"
   xmlns:inkscape="http://www.inkscape.org/namespaces/inkscape"
   version="1.0"
   width="90.000000pt"
   height="48.000000pt"
   viewBox="0 0 90.000000 48.000000"
   preserveAspectRatio="xMidYMid meet"
   id="svg7750"
   sodipodi:docname="logo.svg"
   inkscape:version="0.92.5 (2060ec1f9f, 2020-04-08)">
  <metadata
     id="metadata7756">
    <rdf:RDF>
      <cc:Work
         rdf:about="">
        <dc:format>image/svg+xml</dc:format>
        <dc:type
           rdf:resource="http://purl.org/dc/dcmitype/StillImage" />
        <dc:title></dc:title>
      </cc:Work>
    </rdf:RDF>
  </metadata>
  <defs
     id="defs7754">
    <linearGradient
       id="linearGradient8573"
       osb:paint="solid">
      <stop
         style="stop-color:#000000;stop-opacity:1;"
         offset="0"
         id="stop8571" />
    </linearGradient>
    <linearGradient
       id="linearGradient8565"
       osb:paint="solid">
      <stop
         style="stop-color:#000000;stop-opacity:1;"
         offset="0"
         id="stop8563" />
    </linearGradient>
    <linearGradient
       inkscape:collect="always"
       xlink:href="#linearGradient8565"
       id="linearGradient8567"
       x1="430.42704"
       y1="237.74408"
       x2="884.14992"
       y2="237.74408"
       gradientUnits="userSpaceOnUse" />
    <linearGradient
       inkscape:collect="always"
       xlink:href="#linearGradient8565"
       id="linearGradient8569"
       x1="10"
       y1="239.61798"
       x2="380"
       y2="239.61798"
       gradientUnits="userSpaceOnUse" />
    <linearGradient
       inkscape:collect="always"
       xlink:href="#linearGradient8573"
       id="linearGradient8575"
       x1="430.42704"
       y1="237.74408"
       x2="884.14992"
       y2="237.74408"
       gradientUnits="userSpaceOnUse" />
    <linearGradient
       inkscape:collect="always"
       xlink:href="#linearGradient8573"
       id="linearGradient8577"
       x1="10"
       y1="239.61798"
       x2="380"
       y2="239.61798"
       gradientUnits="userSpaceOnUse" />
  </defs>
  <sodipodi:namedview
     pagecolor="#ffffff"
     bordercolor="#666666"
     borderopacity="1"
     objecttolerance="10"
     gridtolerance="10"
     guidetolerance="10"
     inkscape:pageopacity="0"
     inkscape:pageshadow="2"
     inkscape:window-width="1920"
     inkscape:window-height="1016"
     id="namedview7752"
     showgrid="false"
     inkscape:zoom="4.1365747"
     inkscape:cx="23.943545"
     inkscape:cy="27.917412"
     inkscape:window-x="0"
     inkscape:window-y="27"
     inkscape:window-maximized="1"
     inkscape:current-layer="g7748" />
  <g
     transform="translate(0.000000,48.000000) scale(0.100000,-0.100000)"
     fill="#000000"
     stroke="none"
     id="g7748">
    <path
       d="M145 461 c-59 -8 -86 -21 -114 -57 -19 -24 -21 -40 -21 -161 0 -151 9 -182 62 -209 47 -24 196 -31 236 -10 39 20 72 62 72 92 0 24 0 24 -180 88 l-95 34 -3 66 c-3 75 6 99 51 126 71 44 181 12 202 -58 10 -33 25 -43 25 -17 0 35 -33 77 -73 96 -43 19 -75 21 -162 10z m-36 -47 c-22 -24 -24 -34 -27 -150 -4 -124 -4 -124 -28 -124 l-24 0 0 116 c0 125 6 146 48 168 44 24 59 20 31 -10z m111 -236 c47 -17 87 -32 89 -34 2 -2 -44 -4 -102 -4 l-107 0 0 41 c0 35 3 40 18 34 9 -4 55 -20 102 -37z m-140 -67 c0 -4 11 -24 24 -44 l24 -35 -29 10 c-28 10 -69 51 -69 69 0 5 11 9 25 9 14 0 25 -4 25 -9z m280 -1 c0 -6 -7 -21 -15 -34 -24 -36 -73 -52 -148 -48 -29 2 -97 59 -97 81 0 7 42 11 130 11 83 0 130 -4 130 -10z"
       id="path7744"
       style="fill-opacity:1;fill:url(#linearGradient8569);stroke:url(#linearGradient8577);stroke-width:20.4975;stroke-miterlimit:4;stroke-dasharray:none" />
    <path
       d="M682 449 c-21 -55 -104 -254 -108 -258 -2 -2 -15 1 -29 7 l-24 11 28 68 c27 63 32 89 12 67 -16 -18 -140 -334 -130 -334 5 0 55 25 111 55 55 30 105 55 110 55 5 0 58 -26 118 -57 59 -32 111 -56 114 -53 6 6 -170 439 -185 454 -5 5 -12 -1 -17 -15z m60 -122 c21 -50 38 -97 38 -102 0 -18 -119 -77 -143 -71 -51 14 -51 16 4 150 28 69 54 124 57 121 3 -3 23 -47 44 -98z m84 -205 c18 -42 30 -79 29 -81 -2 -2 -44 19 -94 45 l-90 48 57 33 c31 18 59 32 62 33 3 0 19 -35 36 -78z m-247 39 l54 -28 -87 -46 c-47 -26 -88 -47 -90 -47 -2 0 10 34 27 75 17 41 34 75 37 75 3 -1 29 -13 59 -29z"
       id="path7746"
       style="fill-opacity:1;fill:url(#linearGradient8567);stroke:url(#linearGradient8575);stroke-width:20.4975;stroke-miterlimit:4;stroke-dasharray:none" />
  </g>
</svg>
