<?xml version="1.0" encoding="UTF-8" standalone="no"?>
<svg
   xmlns:osb="http://www.openswatchbook.org/uri/2009/osb"
   xmlns:dc="http://purl.org/dc/elements/1.1/"
   xmlns:cc="http://creativecommons.org/ns#"
   xmlns:rdf="http://www.w3.org/1999/02/22-rdf-syntax-ns#"
   xmlns:svg="http://www.w3.org/2000/svg"
   xmlns="http://www.w3.org/2000/svg"
   xmlns:xlink="http://www.w3.org/1999/xlink"
   xmlns:sodipodi="http://sodipodi.sourceforge.net/DTD/sodipodi-0.dtd"
   xmlns:inkscape="http://www.inkscape.org/namespaces/inkscape"
   version="1.0"
   width="18mm"
   height="18mm"
   viewBox="0 0 51.023622 51.023621"
   preserveAspectRatio="xMidYMid meet"
   id="svg7750"
   sodipodi:docname="logowithoutA.svg"
   inkscape:version="0.92.5 (2060ec1f9f, 2020-04-08)">
  <metadata
     id="metadata7756">
    <rdf:RDF>
      <cc:Work
         rdf:about="">
        <dc:format>image/svg+xml</dc:format>
        <dc:type
           rdf:resource="http://purl.org/dc/dcmitype/StillImage" />
        <dc:title></dc:title>
      </cc:Work>
    </rdf:RDF>
  </metadata>
  <defs
     id="defs7754">
    <linearGradient
       id="linearGradient8573"
       osb:paint="solid">
      <stop
         style="stop-color:#000000;stop-opacity:1;"
         offset="0"
         id="stop8571" />
    </linearGradient>
    <linearGradient
       id="linearGradient8565"
       osb:paint="solid">
      <stop
         style="stop-color:#000000;stop-opacity:1;"
         offset="0"
         id="stop8563" />
    </linearGradient>
    <linearGradient
       inkscape:collect="always"
       xlink:href="#linearGradient8565"
       id="linearGradient8567"
       x1="430.42703"
       y1="237.74408"
       x2="884.1499"
       y2="237.74408"
       gradientUnits="userSpaceOnUse" />
    <linearGradient
       inkscape:collect="always"
       xlink:href="#linearGradient8565"
       id="linearGradient8569"
       x1="10"
       y1="239.61798"
       x2="380"
       y2="239.61798"
       gradientUnits="userSpaceOnUse"
       gradientTransform="translate(60.118023,14.954104)" />
    <linearGradient
       inkscape:collect="always"
       xlink:href="#linearGradient8573"
       id="linearGradient8575"
       x1="430.42703"
       y1="237.74408"
       x2="884.1499"
       y2="237.74408"
       gradientUnits="userSpaceOnUse" />
    <linearGradient
       inkscape:collect="always"
       xlink:href="#linearGradient8573"
       id="linearGradient8577"
       x1="10"
       y1="239.61798"
       x2="380"
       y2="239.61798"
       gradientUnits="userSpaceOnUse"
       gradientTransform="translate(60.118023,14.954104)" />
  </defs>
  <sodipodi:namedview
     pagecolor="#ffffff"
     bordercolor="#666666"
     borderopacity="1"
     objecttolerance="10"
     gridtolerance="10"
     guidetolerance="10"
     inkscape:pageopacity="0"
     inkscape:pageshadow="2"
     inkscape:window-width="960"
     inkscape:window-height="1016"
     id="namedview7752"
     showgrid="false"
     inkscape:zoom="2.925"
     inkscape:cx="1.6768648"
     inkscape:cy="59.644205"
     inkscape:window-x="0"
     inkscape:window-y="27"
     inkscape:window-maximized="0"
     inkscape:current-layer="g7748"
     units="mm"
     width="48mm" />
  <g
     transform="matrix(0.1,0,0,-0.1,0,50.961672)"
     id="g7748"
     style="fill:#000000;stroke:none">
    <path
       d="m 205.11802,475.9541 c -59,-8 -86,-21 -113.999997,-57 -19,-24 -21,-40 -21,-161 0,-151 9,-181.999996 61.999997,-208.999996 47,-24 196,-31 236,-10 39,20 72,61.999996 72,91.999996 0,24 0,24 -180,88 l -95,34 -3,66 c -3,75 6,99 51,126 71,44 181,12 202,-58 10,-33 25,-43 25,-17 0,35 -33,77 -73,96 -43,19 -75,21 -162,10 z m -36,-47 c -22,-24 -24,-34 -27,-150 -4,-124 -4,-124 -28,-124 H 90.118023 v 116 c 0,125 6,146 47.999997,168 44,24 59,20 31,-10 z m 111,-236 c 47,-17 87,-32 89,-34 2,-2 -44,-4 -102,-4 h -107 v 41 c 0,35 3,40 18,34 9,-4 55,-20 102,-37 z m -140,-67 c 0,-4 11,-24 24,-43.999996 l 24,-35 -29,10 c -28,10 -68.999997,50.999996 -68.999997,68.999996 0,5 10.999997,9 24.999997,9 14,0 25,-4 25,-9 z m 280,-1 c 0,-6 -7,-21 -15,-33.999996 -24,-36 -73,-52 -148,-48 -29,2 -97,58.999996 -97,80.999996 0,7 42,11 130,11 83,0 130,-4 130,-10 z"
       id="path7744"
       style="fill:url(#linearGradient8569);fill-opacity:1;stroke:url(#linearGradient8577);stroke-width:20.49749947;stroke-miterlimit:4;stroke-dasharray:none"
       inkscape:connector-curvature="0" />
  </g>
</svg>
